<svg width="42" height="42" viewBox="0 0 42 42" fill="none" xmlns="http://www.w3.org/2000/svg">
<path d="M33.3867 0H8.61328C3.86392 0 0 3.86392 0 8.61328V33.3867C0 38.1361 3.86392 42 8.61328 42H33.3867C38.1361 42 42 38.1361 42 33.3867V8.61328C42 3.86392 38.1361 0 33.3867 0ZM39.5391 33.3867C39.5391 36.7791 36.7791 39.5391 33.3867 39.5391H8.61328C5.22088 39.5391 2.46094 36.7791 2.46094 33.3867V8.61328C2.46094 5.22088 5.22088 2.46094 8.61328 2.46094H33.3867C36.7791 2.46094 39.5391 5.22088 39.5391 8.61328V33.3867Z" fill="#494DD5"/>
<path d="M25.0725 10.1334C24.9307 9.60429 24.5914 9.16198 24.117 8.88816C23.1379 8.3228 21.8812 8.65937 21.3157 9.63882L21 10.1855L20.6843 9.63874C20.1189 8.65954 18.8623 8.3228 17.883 8.88807H17.8829C16.9036 9.45352 16.5669 10.7102 17.1323 11.6895L18.6319 14.287L13.0986 23.8711H9.06445C7.93365 23.8711 7.01367 24.7911 7.01367 25.9219C7.01367 27.0527 7.93365 27.9726 9.06445 27.9726H24.6389L22.2708 23.8711H17.8347L24.8676 11.6896C25.1415 11.2152 25.2144 10.6625 25.0725 10.1334Z" fill="#494DD5"/>
<path d="M32.9355 23.8711H28.9014L24.3153 15.9277L21.9473 20.0292L29.0679 32.3625C29.3418 32.8369 29.784 33.1763 30.3132 33.3181C30.4899 33.3655 30.6692 33.3889 30.8473 33.3889C31.2027 33.3889 31.5534 33.2957 31.8695 33.1132C32.8488 32.5478 33.1855 31.2911 32.62 30.3118L31.2694 27.9726H32.9355C34.0663 27.9726 34.9863 27.0527 34.9863 25.9219C34.9863 24.7911 34.0663 23.8711 32.9355 23.8711Z" fill="#494DD5"/>
<path d="M9.78338 29.6133L9.38003 30.3119C8.81467 31.2911 9.15141 32.5479 10.1307 33.1132C10.4528 33.2992 10.8049 33.3876 11.1526 33.3875C11.8619 33.3875 12.5527 33.0197 12.9321 32.3626L14.5195 29.6133H9.78338Z" fill="#494DD5"/>
</svg>
