<svg width="100" height="100" viewBox="0 0 100 100" fill="none" xmlns="http://www.w3.org/2000/svg">
<path d="M81.5023 0H72.8932V29.1368C72.8932 31.1839 70.8234 32.1961 69.2198 29.6258L63.5335 20.5277L57.8471 29.6258C56.2322 32.1847 54.1738 31.1839 54.1738 29.1368V0H25.3099C18.3325 0.0187649 12.6862 5.68037 12.6862 12.6578V87.3763C12.705 94.3404 18.3458 99.9812 25.3099 100H81.5137C83.0507 99.9974 84.5238 99.3839 85.6079 98.2941C86.6977 97.21 87.3112 95.737 87.3138 94.1999V5.81144C87.3075 2.60434 84.7094 0.00625498 81.5023 0ZM82.5827 84.9881L27.7437 85.0563C26.5484 85.1387 25.5973 86.0901 25.5149 87.2851C25.4236 88.6071 26.4216 89.7529 27.7437 89.8442H82.5827L82.5714 94.2568C82.5719 94.5198 82.4699 94.7728 82.287 94.9619C82.098 95.1447 81.8449 95.2468 81.5819 95.2462H25.3099C20.9917 95.2462 17.4912 91.7457 17.4912 87.4275C17.4912 83.1093 20.9917 79.6088 25.3099 79.6088H81.5819C82.1321 79.615 82.5765 80.0594 82.5827 80.6096V84.9881Z" fill="black"/>
</svg>
