<svg width="33" height="33" viewBox="0 0 33 33" fill="none" xmlns="http://www.w3.org/2000/svg">
<g clip-path="url(#clip0)">
<path d="M32.9692 9.48599C32.8936 7.77162 32.6164 6.59302 32.2192 5.57174C31.8095 4.48767 31.1792 3.51711 30.3534 2.71028C29.5466 1.89089 28.5696 1.25419 27.4981 0.850902C26.471 0.453765 25.2985 0.176533 23.5841 0.100946C21.857 0.0189582 21.3087 0 16.9281 0C12.5475 0 11.9992 0.0189582 10.2785 0.0945447C8.5641 0.170131 7.38549 0.44761 6.36446 0.844501C5.28015 1.25419 4.30959 1.88449 3.50276 2.71028C2.68337 3.51711 2.04692 4.49407 1.64338 5.56558C1.24625 6.59302 0.969013 7.76522 0.893427 9.47958C0.811439 11.2067 0.79248 11.7551 0.79248 16.1356C0.79248 20.5162 0.811439 21.0645 0.887025 22.7853C0.962612 24.4996 1.24009 25.6782 1.63723 26.6995C2.04692 27.7836 2.68337 28.7541 3.50276 29.561C4.30959 30.3804 5.28655 31.0171 6.35806 31.4204C7.38549 31.8175 8.5577 32.0947 10.2723 32.1703C11.9928 32.2461 12.5414 32.2649 16.9219 32.2649C21.3025 32.2649 21.8508 32.2461 23.5716 32.1703C25.2859 32.0947 26.4646 31.8175 27.4856 31.4204C29.654 30.582 31.3683 28.8676 32.2067 26.6995C32.6036 25.6721 32.881 24.4996 32.9566 22.7853C33.0322 21.0645 33.0512 20.5162 33.0512 16.1356C33.0512 11.7551 33.0448 11.2067 32.9692 9.48599ZM30.0637 22.6592C29.9942 24.235 29.7295 25.0859 29.5089 25.6531C28.9668 27.0587 27.8512 28.1743 26.4456 28.7165C25.8783 28.9371 25.0213 29.2018 23.4517 29.2709C21.7499 29.3468 21.2395 29.3655 16.9345 29.3655C12.6295 29.3655 12.1127 29.3468 10.4171 29.2709C8.84133 29.2018 7.99043 28.9371 7.42316 28.7165C6.72368 28.458 6.08698 28.0483 5.57019 27.5125C5.03443 26.9893 4.62474 26.359 4.36622 25.6595C4.14561 25.0923 3.88094 24.235 3.81175 22.6656C3.73592 20.9638 3.71721 20.4532 3.71721 16.1482C3.71721 11.8432 3.73592 11.3264 3.81175 9.631C3.88094 8.05526 4.14561 7.20436 4.36622 6.63709C4.62474 5.93736 5.03443 5.3009 5.57659 4.78386C6.09954 4.24811 6.72984 3.83842 7.42956 3.58014C7.99683 3.35954 8.85414 3.09486 10.4235 3.02543C12.1253 2.94984 12.6359 2.93089 16.9407 2.93089C21.252 2.93089 21.7624 2.94984 23.4581 3.02543C25.0338 3.09486 25.8847 3.35954 26.452 3.58014C27.1515 3.83842 27.7882 4.24811 28.305 4.78386C28.8407 5.30706 29.2504 5.93736 29.5089 6.63709C29.7295 7.20436 29.9942 8.06141 30.0637 9.631C30.1392 11.3328 30.1582 11.8432 30.1582 16.1482C30.1582 20.4532 30.1392 20.9574 30.0637 22.6592Z" fill="white"/>
<path d="M16.9273 7.84717C12.3515 7.84717 8.63892 11.5595 8.63892 16.1356C8.63892 20.7116 12.3515 24.424 16.9273 24.424C21.5034 24.424 25.2158 20.7116 25.2158 16.1356C25.2158 11.5595 21.5034 7.84717 16.9273 7.84717ZM16.9273 21.5121C13.9588 21.5121 11.5508 19.1044 11.5508 16.1356C11.5508 13.1668 13.9588 10.7591 16.9273 10.7591C19.8961 10.7591 22.3038 13.1668 22.3038 16.1356C22.3038 19.1044 19.8961 21.5121 16.9273 21.5121V21.5121Z" fill="white"/>
<path d="M27.4788 7.51944C27.4788 8.58799 26.6124 9.45441 25.5436 9.45441C24.4751 9.45441 23.6086 8.58799 23.6086 7.51944C23.6086 6.45064 24.4751 5.58447 25.5436 5.58447C26.6124 5.58447 27.4788 6.45064 27.4788 7.51944V7.51944Z" fill="white"/>
</g>
<defs>
<clipPath id="clip0">
<rect width="32.265" height="32.265" fill="white" transform="translate(0.735107)"/>
</clipPath>
</defs>
</svg>
