<svg width="100" height="100" viewBox="0 0 100 100" fill="none" xmlns="http://www.w3.org/2000/svg">
<g clip-path="url(#clip0)">
<path d="M99.6818 44.2408C99.4693 43.7324 99.1652 43.2699 98.7777 42.8824L86.2818 30.3865C84.6527 28.7615 82.0193 28.7615 80.3902 30.3865C78.7611 32.0156 78.7611 34.6531 80.3902 36.2781L85.7777 41.6656H62.5025C60.1984 41.6656 58.3359 43.5322 58.3359 45.8322C58.3359 48.1322 60.1984 49.9988 62.5025 49.9988H85.7775L80.39 55.3863C78.7609 57.0154 78.7609 59.6529 80.39 61.2779C81.2025 62.0945 82.2691 62.4988 83.3359 62.4988C84.4027 62.4988 85.4693 62.0947 86.2818 61.2779L98.7777 48.782C99.1652 48.3986 99.4693 47.9361 99.6818 47.4236C100.103 46.4074 100.103 45.2574 99.6818 44.2408Z" fill="black"/>
<path d="M70.8359 58.3334C68.5318 58.3334 66.6693 60.2 66.6693 62.5V83.3334H50.0027V16.6666C50.0027 14.8291 48.7943 13.2041 47.0318 12.675L32.5609 8.3334H66.6693V29.1668C66.6693 31.4668 68.5318 33.3334 70.8359 33.3334C73.14 33.3334 75.0025 31.4668 75.0025 29.1668V4.1668C75.0025 1.8666 73.14 0 70.8359 0H4.16935C4.01935 0 3.88595 0.0625 3.74025 0.0791016C3.54435 0.1 3.36525 0.133203 3.17775 0.179102C2.74025 0.291602 2.34435 0.4625 1.97364 0.695703C1.88204 0.754102 1.76954 0.758203 1.68204 0.824805C1.64845 0.85 1.63595 0.895898 1.60255 0.920898C1.14845 1.2791 0.769348 1.7166 0.494348 2.2375C0.43595 2.35 0.42345 2.4709 0.377747 2.5875C0.244348 2.9041 0.098645 3.2125 0.048645 3.5625C0.0277466 3.6875 0.0652466 3.8041 0.061145 3.925C0.0570435 4.0084 0.00274658 4.0834 0.00274658 4.1666V87.5C0.00274658 89.4875 1.40685 91.1959 3.35275 91.5834L45.0193 99.9168C45.2902 99.9752 45.5652 100 45.8359 100C46.79 100 47.7276 99.6711 48.4776 99.0543C49.4401 98.2627 50.0025 97.0834 50.0025 95.8334V91.6668H70.8359C73.14 91.6668 75.0025 89.8002 75.0025 87.5002V62.5C75.0025 60.2 73.14 58.3334 70.8359 58.3334Z" fill="black"/>
</g>
<defs>
<clipPath id="clip0">
<rect width="100" height="100" fill="white"/>
</clipPath>
</defs>
</svg>
