<svg width="32" height="32" viewBox="0 0 32 32" fill="none" xmlns="http://www.w3.org/2000/svg">
<path d="M25.8125 9.87733V6.2933C25.8125 3.98803 23.9732 2.11171 21.6679 2.11171H10.3686C8.06323 2.11171 6.18619 3.98735 6.18619 6.2933V9.87666H1.81971C0.814754 9.87666 0 10.6914 0 11.6963V15.652C0 16.6576 0.814754 17.4717 1.81971 17.4717H2.36198L4.3503 28.3944C4.50745 29.259 5.2615 29.8876 6.14033 29.8876H25.8968C26.7763 29.8876 27.529 29.259 27.6868 28.3937L29.6738 17.4717H30.1796C31.1846 17.4717 31.9993 16.6576 31.9993 15.652V11.6963C31.9993 10.6914 31.1846 9.87666 30.1796 9.87666L25.8125 9.87733ZM9.55717 6.2933C9.55717 5.85356 9.9288 5.48261 10.3686 5.48261H21.6699C22.109 5.48261 22.4428 5.85356 22.4428 6.2933V9.87666H9.55717V6.2933ZM12.0743 23.3846C12.0743 24.084 11.5151 24.6505 10.8157 24.6505C10.117 24.6505 9.55717 24.084 9.55717 23.3846V16.435C9.55717 15.7356 10.117 15.1698 10.8157 15.1698C11.5158 15.1698 12.0743 15.737 12.0743 16.435V23.3846ZM17.2798 23.3846C17.2798 24.084 16.72 24.6505 16.0212 24.6505C15.3225 24.6505 14.762 24.084 14.762 23.3846V16.435C14.762 15.7356 15.3225 15.1698 16.0212 15.1698C16.7207 15.1698 17.2798 15.737 17.2798 16.435V23.3846ZM22.4853 23.3846C22.4853 24.084 21.9255 24.6505 21.2274 24.6505C20.528 24.6505 19.9682 24.084 19.9682 23.3846V16.435C19.9682 15.7356 20.528 15.1698 21.2274 15.1698C21.9255 15.1698 22.4853 15.737 22.4853 16.435V23.3846Z" fill="white"/>
</svg>
